<?xml version="1.0" encoding="UTF-8"?>
<svg version="1.1" viewBox="0 0 2048 2048" width="512" height="512" xmlns="http://www.w3.org/2000/svg">
<path transform="translate(998)" d="m0 0h53l3 2 23 7 16 8 16 10 15 13 11 12 10 14 10 19 7 20 1 6h539l12 2 9 6 6 7 4 10v12l-4 10-6 7-8 5-9 2-101 1h-13v54l8 16 12 23 18 34 13 25 10 19 15 28 15 29 10 19 15 28 15 29 10 19 17 32 13 25 10 19 15 28 15 29 10 19 15 28 14 27 10 19 18 34 13 25 9 4 12 6 9 8 6 11 3 10v10l-3 12-12 22-14 24-15 26-14 24-16 28-8 12-9 8-11 5-12 2h-75l-8-2-6-3-7-6-6-12-1-3v-9l4-11 8-9 9-5 4-1 65-1 4-4 16-28 14-24 16-28 2-3h-573l15 26 12 21 15 26 8 13 1 1 275 1 10 3 9 7 6 10 2 12-2 9-6 10-8 6-8 3-8 1h-284l-14-3-10-6-7-7-13-21-14-25-14-24-12-21-15-26-9-16-4-12v-12l2-9 6-11 9-9 12-6 9-3 12-23 10-19 18-34 12-23 10-19 12-22 8-16 18-34 13-25 11-20 8-16 12-23 12-22 8-15 8-16 12-23 12-22 16-31 10-19 18-34 24-46 10-18 7-14 10-19 1-4v-52l-366-1-2 10-6 17-7 14-11 16-9 11h-2l-2 4-14 12-16 10-16 8-22 7-1 100 36 1 11 3 10 5 10 9 6 8 4 8 3 16v78l-2 13-4 8-7 7-8 4-4 1h-12l-9-3-10-9-5-11-1-7v-69h-99v692h99v-486l3-10 4-6 7-7 9-4h15l10 4 9 9 4 9 1 9v482l16 2 16 4 18 8 16 11 10 9 9 11 9 14 7 16 4 16 1 8v73h59l20 3 16 6 13 7 10 8 9 8 10 13 9 17 5 17 2 20v79h588l19 1 7 3 6 4 6 7 4 10v12l-4 9-6 8-8 5-7 2-54 1h-12v355h64l8 2 9 6 6 7 4 10v12l-6 12-7 7-9 4-6 1h-1286v47l-3 12-6 10-5 5-6 5-12 6h-21l-16-8-11-8-19-13-17-12-16-11-8-5-22 15-23 16-19 13-14 9-8 4h-22l-15-8-8-8-6-11-2-5-1-7v-46h-181l-21-2-24-5-23-7-21-9-19-10-11-7-16-12-13-11-18-18-11-14-10-14-9-15-13-27-8-24-5-22-2-12-1-11v-38l3-23 7-28 8-22 11-23 14-22 13-17 12-13 12-12 11-9 18-13 19-11 19-9 22-8 24-6 22-3 14-1h399l1-1 1-86 3-17 4-12 8-16 11-14 8-8 14-10 16-8 14-4 15-2h59v-66l3-21 6-18 8-15 12-16 9-9 17-12 14-7 16-5 19-3h3v-708l4-15 7-11 10-10 14-7 8-2h37v-101l-12-3-20-8-14-8-11-8-10-9-12-12-11-15-11-21-8-24-366-1 1 55 19 37 10 18 8 16 12 22 8 16 13 25 12 22 18 35 9 16 8 16 12 22 8 16 13 25 12 22 18 35 9 16 8 16 12 22 8 16 13 25 12 22 18 35 12 22 9 17 7 14 5 8 12 4 11 7 7 8 5 10 2 8v10l-3 12-8 15-11 19-9 16-10 17-15 26-12 21-11 18-9 10-9 5-9 3-8 1h-499l-12-3-10-6-7-7-8-13-15-26-14-24-16-28-15-26-9-16-4-12v-12l3-11 6-10 7-7 8-5 13-4 6-10 17-33 12-22 8-15 8-16 12-23 10-19 10-18 8-16 12-23 12-22 19-37 12-22 16-31 10-18 8-16 13-25 12-22 18-35 12-22 16-31 10-19 12-23 12-22 7-13 1-4 1-54h-118l-10-4-8-7-6-12v-14l4-9 7-8 8-5 10-2h541l2-10 6-16 8-16 12-17 12-13 10-9 14-10 19-10 21-7zm22 60-15 2-12 4-12 6-9 7-8 7-9 12-7 14-4 12-1 5v26l4 15 8 16 7 9 4 5h2v2l14 10 12 6 14 4 5 1h21l14-3 16-7 13-9 7-6 10-14 6-12 4-13 1-6v-22l-4-16-5-12-7-11-9-10-10-8-15-8-13-4-14-2zm-502 299v424h224l-8-16-15-29-10-18-8-16-13-25-12-22-18-35-12-22-16-31-10-19-12-23-12-22-17-33-10-19-15-28-16-31-10-19-9-16zm1011 0-9 16-7 14-10 19-12 23-10 19-18 34-12 23-11 20-7 14-10 19-15 28-8 15-7 14-12 22-20 39-10 19-15 28-17 33-13 23v2h223l1-28v-396zm-1073 1-6 10-12 23-10 19-12 22-8 16-13 25-11 20-7 14-10 19-10 18-8 16-12 23-12 22-19 37-12 22-19 37-11 20-7 14-10 19-13 24-1 3h224v-423zm1135 0v423h224l-8-16-24-46-12-22-17-33-10-19-15-28-15-29-12-22-16-31-10-19-12-23-12-22-18-35-10-19-15-28-15-29zm-1390 484 2 5 15 26 12 21 14 24 7 11 1 1h471l6-8 14-25 14-24 12-21 5-10zm714 352-12 2-10 4-8 6-3 2v2h-2l-7 10-5 14-1 14v57h313v-69l-4-13-6-10-5-6-14-9-10-3-8-1zm-166 172-9 2-8 4-8 7-6 10-2 5-1 7v82l173 1 19 1 10 4 7 7 5 10 1 7-2 11-5 9-8 7-9 3-321 1h-165l-16 1-12 3-16 8-10 8-11 12-6 10-5 13-2 9-1 11v209l2 14 5 14 5 9 9 12h2l1 3 14 10 13 6 10 3 7 1h21v-222l-16-1-10-3-8-6-6-9-2-7v-9l4-11 4-5v-2l5-2 7-4 4-1h555l9 3 8 6 4 5 4 10v11l-4 10-7 8-10 5-10 1-251 1v222h1162v-73l-655-1-9-4-7-6-6-12v-13l4-10 6-7 9-5 2-1 656-1v-90h-650l-9-2-7-4-7-8-4-9v-13l4-10 5-6 14-7 78-1h576v-72l-2-1h-825l-12-1-9-4-8-7-5-10-1-4v-8l4-11 6-8 8-5 12-2h291l1-1 1-35v-46l-3-13-7-11-9-7-10-4-6-1zm-465 178-38 1-21 3-16 4-20 8-16 8-12 8-13 10-15 14-7 8-10 13-9 15-8 16-7 19-5 22-2 17v25l3 23 6 22 9 21 8 15 12 17 11 12 12 12 17 13 19 11 18 8 15 5 19 4 19 2h50l-12-24-7-22-2-12-1-11v-221l3-20 8-24 11-21-4-1zm363 133-156 1v289l2 1 56-39 8-5 6-2h14l9 4 11 7 20 14 16 11 13 9 3 1v-290z"/>
<path transform="translate(458,2047)" d="m0 0 2 1z"/>
</svg>
